<svg xmlns="http://www.w3.org/2000/svg" xml:space="preserve" id="Capa_1" x="0" y="0" style="enable-background:new 0 0 1000 1000" version="1.1" viewBox="0 0 1000 1000"><style>.st1{fill:#fff}</style><linearGradient id="XMLID_3_" x1="405.11" x2="593.688" y1="825.529" y2="825.529" gradientUnits="userSpaceOnUse"><stop offset="0" style="stop-color:#ff8e44"/><stop offset=".5" style="stop-color:#f91362"/><stop offset="1" style="stop-color:#35126a"/></linearGradient><path id="XMLID_25_" d="m405.1 825.5 94.3-163.3 94.3 163.3-94.3 163.3z" style="fill:url(#XMLID_3_)"/><path id="XMLID_26_" d="M216.7 660.3 169.5 742l-32.9-57c-8.1-14-8.1-31.3-.1-45.4L499.4 11.2l.2 159.2L311 497l-37.7 65.3c-5.9 10.1-5.9 22.6-.2 32.8l71.1 126.3c7.9 14 7.8 31.2-.3 45.1L311 823.6l-94.3-163.3z" class="st1"/><linearGradient id="XMLID_4_" x1="366.278" x2="633.729" y1="499.957" y2="499.957" gradientUnits="userSpaceOnUse"><stop offset="0" style="stop-color:#ff8e44"/><stop offset=".5" style="stop-color:#f91362"/><stop offset="1" style="stop-color:#35126a"/></linearGradient><path id="XMLID_23_" d="m372.4 557.9 127-220.2 128.1 220c8.2 14.1 8.3 31.6.1 45.7l-33.9 58.8-94.3-165.7L405.1 660l-32.7-56.6c-8.2-14.1-8.2-31.4 0-45.5z" style="fill:url(#XMLID_4_)"/><path id="XMLID_2_" d="m783.3 661.4 47.1 81.7 32.9-57c8.1-14 8.1-31.3.1-45.4l-364-629.5.2 159.2L689 498.1l37.7 65.3c5.9 10.1 5.9 22.6.2 32.8l-71.1 126.3c-7.9 14-7.8 31.2.3 45.1l32.9 57.1 94.3-163.3z" class="st1"/></svg>